<?xml version="1.0" standalone="no"?>
<!DOCTYPE svg PUBLIC "-//W3C//DTD SVG 20010904//EN"
 "http://www.w3.org/TR/2001/REC-SVG-20010904/DTD/svg10.dtd">
<svg version="1.0" xmlns="http://www.w3.org/2000/svg"
viewBox="0 0 200.000000 200.000000"
 preserveAspectRatio="xMidYMid meet">

<g transform="translate(0.000000,200.000000) scale(0.100000,-0.100000)"
fill="#6238da" stroke="none">
<path d="M1246 1845 c-53 -19 -85 -44 -121 -94 l-30 -43 -6 -236 c-7 -251 -12
-277 -65 -363 -34 -54 -122 -127 -182 -149 -29 -11 -90 -24 -137 -29 -46 -6
-97 -17 -113 -25 -43 -22 -99 -89 -111 -133 -6 -21 -11 -126 -11 -233 0 -185
1 -198 24 -247 30 -63 87 -107 161 -124 45 -10 61 -9 109 6 59 19 114 64 143
118 15 27 19 71 23 267 7 252 9 268 65 355 64 101 165 158 309 174 136 16 200
62 232 168 21 70 19 375 -2 442 -22 67 -82 127 -148 146 -61 18 -89 18 -140 0z"/>
</g>
</svg>
